<svg width="1920" height="1080" viewBox="0 0 1920 1080" fill="none" xmlns="http://www.w3.org/2000/svg">
<path d="M1920 0H0V1080H1920V0Z" fill="#001F3F"/>
<path d="M0 683.223L192 739.473L384 746.504L576 654.094L768 755.545L960 680.21L1152 633L1344 634.004L1536 765.589L1728 746.504L1920 651.08V1083H1728H1536H1344H1152H960H768H576H384H192H0V683.223Z" fill="#004080"/>
<path d="M0 800.746L192 841.929L384 773.625L576 782.665L768 808.781L960 809.786L1152 779.652L1344 842.933L1536 720.388L1728 779.652L1920 715.366V1083H1728H1536H1344H1152H960H768H576H384H192H0V800.746Z" fill="#003A74"/>
<path d="M0 788.692L192 823.848L384 844.942L576 850.969L768 789.696L960 904.205L1152 813.804L1344 789.696L1536 859.004L1728 808.781L1920 833.893V1083H1728H1536H1344H1152H960H768H576H384H192H0V788.692Z" fill="#003468"/>
<path d="M0 930.322L192 935.344L384 870.054L576 934.339L768 962.464L960 899.183L1152 965.478L1344 884.116L1536 961.46L1728 954.429L1920 941.371V1083H1728H1536H1344H1152H960H768H576H384H192H0V930.322Z" fill="#012E5C"/>
<path d="M0 1013.69L192 1011.68L384 1004.65L576 1027.75L768 991.594L960 952.42L1152 998.625L1344 997.621L1536 964.473L1728 965.478L1920 1025.75V1083H1728H1536H1344H1152H960H768H576H384H192H0V1013.69Z" fill="#032950"/>
</svg>
